<svg xmlns="http://www.w3.org/2000/svg" version="1.1" xmlns:xlink="http://www.w3.org/1999/xlink" xmlns:svgjs="http://svgjs.dev/svgjs" width="100%" height="100%" viewBox="0 0 1000 600"><rect width="1000" height="600" x="0" y="0" fill="#c0c0c0"/><g><circle r="166.66666666666666" cx="452.6727091471354" cy="453.95752537395094" fill="#fbeaeb" transform="matrix(0.4715759660649511,0,0,0.4715759660649511,-5.217424363242594,85.92453269251857)"/><path d="M364.9801992866119 526.9609682161476L313.2403249358775 459.0773403469371L295.38521945431205 477.6169866137383L295.38521945431205 526.9609682161476L276.13250986955694 526.9609682161476L276.13250986955694 380.9541232319087L295.38521945431205 380.9541232319087L295.38521945431205 453.14465354156073L360.27398138811617 380.9541232319087L383.51984555341306 380.9541232319087L326.07546465904755 445.4435697076587L388.0549282555998 526.9609682161476L364.9801992866119 526.9609682161476ZM489.82332499397927 480.64037508186277L509.16160217688883 480.64037508186277Q506.48048410138216 503.80067164900515 492.0766050787136 516.3791085777118Q477.7012485887631 528.9575455064185 453.8278887036668 528.9575455064185L453.8278887036668 528.9575455064185Q427.9579515282996 528.9575455064185 412.35612613146844 510.4178992396173Q396.7543007346373 491.8782529728161 396.7543007346373 460.7886923100264L396.7543007346373 460.7886923100264L396.7543007346373 446.7270836799757Q396.7543007346373 426.39051785193067 404.02754657776705 410.9313051186903Q411.3007924208967 395.5006149181681 424.64933773299356 387.2290804299029Q437.96936051237225 378.95754594163776 455.53924066675614 378.95754594163776L455.53924066675614 378.95754594163776Q478.78510483205304 378.95754594163776 492.8181909293856 391.93529832839863Q506.8797995594364 404.9130507151595 509.16160217688883 427.9022120859929L509.16160217688883 427.9022120859929L489.82332499397927 427.9022120859929Q487.31334211478156 410.44642206248164 478.9277174956438 402.631248097707Q470.5706154092242 394.78755160021416 455.53924066675614 394.78755160021416L455.53924066675614 394.78755160021416Q437.0851619981094 394.78755160021416 426.58886995782814 408.4498447722108Q416.12110045026503 422.0836154114892 416.12110045026503 447.2404892689025L416.12110045026503 447.2404892689025L416.12110045026503 461.3876654971077Q416.12110045026503 485.1469352513314 426.0469418361832 499.18002134866396Q435.9727832221013 513.2131074459966 453.8278887036668 513.2131074459966L453.8278887036668 513.2131074459966Q469.8575520912703 513.2131074459966 478.44283443943516 505.93986160286687Q487.0281167876 498.69513829245534 489.82332499397927 480.64037508186277L489.82332499397927 480.64037508186277ZM608.9619441577154 380.9541232319087L608.9619441577154 477.930734473638L629.2129423876061 477.930734473638L629.2129423876061 493.0761993469787L608.9619441577154 493.0761993469787L608.9619441577154 526.9609682161476L590.3082077600418 526.9609682161476L590.3082077600418 493.0761993469787L523.8221839940209 493.0761993469787L523.8221839940209 482.152069315925L589.1958289840336 380.9541232319087L608.9619441577154 380.9541232319087ZM588.0834502080256 410.332331931609L544.8718131400196 477.930734473638L590.3082077600418 477.930734473638L590.3082077600418 406.33917735106724L588.0834502080256 410.332331931609Z " fill="#2f3c7e" transform="matrix(0.4715759660649511,0,0,0.4715759660649511,-5.217424363242594,85.92453269251857)"/><path d="M741.4895775749216 496.9817400788887L702.6727320756698 496.9817400788887L702.6727320756698 385.0991769535115L739.2602317185457 385.0991769535115Q757.4665562122826 385.0991769535115 766.6462156208894 392.63961146772425Q775.8258750294963 400.1581896500118 775.8258750294963 414.9112136995585L775.8258750294963 414.9112136995585Q775.8258750294963 422.7576368607248 771.3671833167443 428.78998447209506Q766.9084916039925 434.82233208346526 759.2369190982282 438.12263820417866L759.2369190982282 438.12263820417866Q768.2854405152835 440.6579727075082 773.5528165092697 447.76128058321586Q778.8201925032561 454.86458845892355 778.8201925032561 464.69993782528803L778.8201925032561 464.69993782528803Q778.8201925032561 479.7589505217883 769.0722684645926 488.3703453003385Q759.3024880940039 496.9817400788887 741.4895775749216 496.9817400788887L741.4895775749216 496.9817400788887ZM742.0141295411278 444.65768144982974L717.4257561252165 444.65768144982974L717.4257561252165 484.9170448561483L741.7955662218752 484.9170448561483Q752.0898985586699 484.9170448561483 758.0348208423392 479.5840998663862Q764.0015994579336 474.2292985446989 764.0015994579336 464.8529321487648L764.0015994579336 464.8529321487648Q764.0015994579336 444.65768144982974 742.0141295411278 444.65768144982974L742.0141295411278 444.65768144982974ZM717.4257561252165 397.25129750395297L717.4257561252165 432.81154954634184L739.719214688976 432.81154954634184Q749.4015697318637 432.81154954634184 755.1934976920561 427.9813001908606Q761.0072819841738 423.1291945034542 761.0072819841738 414.84564470378274L761.0072819841738 414.84564470378274Q761.0072819841738 405.6222726313254 755.6087679986359 401.4258569016766Q750.2321103450233 397.25129750395297 739.2602317185457 397.25129750395297L739.2602317185457 397.25129750395297L717.4257561252165 397.25129750395297ZM794.6441768171403 455.6514164082327L794.6441768171403 454.646025139671Q794.6441768171403 442.42833559345377 799.4525698406962 432.65855522286506Q804.2609628642522 422.91063118420163 812.828644978952 417.5995425263648Q821.3963270936516 412.3103102004532 832.3900620520546 412.3103102004532L832.3900620520546 412.3103102004532Q849.350575626052 412.3103102004532 859.8416149501741 424.0690167762401Q870.3326542742963 435.82772335202696 870.3326542742963 455.3454277612791L870.3326542742963 455.3454277612791L870.3326542742963 456.3289626979156Q870.3326542742963 468.481083248357 865.6991119061423 478.1197256273942Q861.0437132060631 487.7583680064314 852.3886057636623 493.13502566004394Q843.7553546531868 498.51168331365653 832.5430563755314 498.51168331365653L832.5430563755314 498.51168331365653Q815.6262554653845 498.51168331365653 805.1352161412624 486.7529767378697Q794.6441768171403 475.01612649400806 794.6441768171403 455.6514164082327L794.6441768171403 455.6514164082327ZM808.9382178962567 456.3289626979156L808.9382178962567 456.3289626979156Q808.9382178962567 470.1640208066016 815.3639794822815 478.534995933974Q821.767884736381 486.90597106134646 832.5430563755314 486.90597106134646L832.5430563755314 486.90597106134646Q843.3619406785323 486.90597106134646 849.7439896007065 478.42571427434774Q856.1260385228809 469.9236011554238 856.1260385228809 454.646025139671L856.1260385228809 454.646025139671Q856.1260385228809 440.96396135446173 849.6347079410804 432.483704567463Q843.1433773592797 423.98159144853906 832.3900620520546 423.98159144853906L832.3900620520546 423.98159144853906Q821.855310064082 423.98159144853906 815.4076921461319 432.3525665759115Q808.9382178962567 440.7453980352092 808.9382178962567 456.3289626979156ZM884.4081320341601 455.6514164082327L884.4081320341601 454.646025139671Q884.4081320341601 442.42833559345377 889.1946687257907 432.65855522286506Q894.0030617493467 422.91063118420163 902.5707438640464 417.5995425263648Q911.1384259787461 412.3103102004532 922.132160937149 412.3103102004532L922.132160937149 412.3103102004532Q939.1145308430717 412.3103102004532 949.6055701671938 424.0690167762401Q960.0747531593908 435.82772335202696 960.0747531593908 455.3454277612791L960.0747531593908 455.3454277612791L960.0747531593908 456.3289626979156Q960.0747531593908 468.481083248357 955.4412107912368 478.1197256273942Q950.7858120911576 487.7583680064314 942.1525609806821 493.13502566004394Q933.4974535382813 498.51168331365653 922.2851552606259 498.51168331365653L922.2851552606259 498.51168331365653Q905.368354350479 498.51168331365653 894.8773150263569 486.7529767378697Q884.4081320341601 475.01612649400806 884.4081320341601 455.6514164082327L884.4081320341601 455.6514164082327ZM898.7021731132764 456.3289626979156L898.7021731132764 456.3289626979156Q898.7021731132764 470.1640208066016 905.106078367376 478.534995933974Q911.5318399534007 486.90597106134646 922.2851552606259 486.90597106134646L922.2851552606259 486.90597106134646Q933.125895895552 486.90597106134646 939.4860884858011 478.42571427434774Q945.8681374079753 469.9236011554238 945.8681374079753 454.646025139671L945.8681374079753 454.646025139671Q945.8681374079753 440.96396135446173 939.3768068261749 432.483704567463Q932.8854762443742 423.98159144853906 922.132160937149 423.98159144853906L922.132160937149 423.98159144853906Q911.5974089491765 423.98159144853906 905.1497910312264 432.3525665759115Q898.7021731132764 440.7453980352092 898.7021731132764 456.3289626979156ZM982.9801890170573 393.71057173206174L997.2086611003979 393.71057173206174L997.2086611003979 413.84025343522103L1012.7266567673286 413.84025343522103L1012.7266567673286 424.833988393624L997.2086611003979 424.833988393624L997.2086611003979 476.3930754052991Q997.2086611003979 481.3763190842571 999.2631563013719 483.88979725566134Q1001.339507834271 486.38141909514036 1006.3446078451542 486.38141909514036L1006.3446078451542 486.38141909514036Q1008.7925170207827 486.38141909514036 1013.0982144100578 485.4634531542797L1013.0982144100578 485.4634531542797L1013.0982144100578 496.9817400788887Q1007.5029934371927 498.51168331365653 1002.1919047793559 498.51168331365653L1002.1919047793559 498.51168331365653Q992.662544059945 498.51168331365653 987.8322947044637 492.7634680173146Q982.9801890170573 486.99339638904746 982.9801890170573 476.3930754052991L982.9801890170573 476.3930754052991L982.9801890170573 424.833988393624L967.8556073247813 424.833988393624L967.8556073247813 413.84025343522103L982.9801890170573 413.84025343522103L982.9801890170573 393.71057173206174ZM1077.7273879130353 474.92870116630706L1077.7273879130353 474.92870116630706Q1077.7273879130353 469.15862953803986 1073.3779778599096 465.96760507695274Q1069.0504241387089 462.79843694779083 1058.2533961676336 460.4816657637139Q1047.4563681965578 458.18675091156217 1041.1180319382338 454.95201378662455Q1034.7796956799102 451.7172766616869 1031.7416655422999 447.258584948935Q1028.7036354046895 442.7998932361831 1028.7036354046895 436.6582639651866L1028.7036354046895 436.6582639651866Q1028.7036354046895 426.4513569560928 1037.3368865151651 419.3699054123104Q1045.9919939575657 412.3103102004532 1059.433638091597 412.3103102004532L1059.433638091597 412.3103102004532Q1073.5746848472368 412.3103102004532 1082.3827866131141 419.6103250634882Q1091.1690320470666 426.91033992652314 1091.1690320470666 438.27563252765543L1091.1690320470666 438.27563252765543L1076.87499096795 438.27563252765543Q1076.87499096795 432.4399919036125 1071.9136036209175 428.22171984203845Q1066.9740726058099 423.98159144853906 1059.433638091597 423.98159144853906L1059.433638091597 423.98159144853906Q1051.674640258132 423.98159144853906 1047.303373873081 427.3693228969535Q1042.910251156105 430.7570543453679 1042.910251156105 436.1992809947563L1042.910251156105 436.1992809947563Q1042.910251156105 441.35737532911634 1046.9973852261273 443.9582788282216Q1051.0626629642247 446.5810386592521 1061.7066966118236 448.96337883910485Q1072.3507302594226 451.3457190189576 1078.9513425008495 454.646025139671Q1085.5738110742013 457.9463312603844 1088.7429792033631 462.60172996046356Q1091.9340036644503 467.2352723286175 1091.9340036644503 473.92330989774536L1091.9340036644503 473.92330989774536Q1091.9340036644503 485.0700391796251 1083.0166202389464 491.80178941260345Q1074.121093145368 498.51168331365653 1059.8926210620275 498.51168331365653L1059.8926210620275 498.51168331365653Q1049.9042773721862 498.51168331365653 1042.232704866422 494.9928138736906Q1034.5392760287323 491.45208810179935 1030.1898659756066 485.1137518434756Q1025.8623122544063 478.7754155851518 1025.8623122544063 471.38797539441583L1025.8623122544063 471.38797539441583L1040.0689280058218 471.38797539441583Q1040.4623419804766 478.534995933974 1045.7952869702385 482.7314116636229Q1051.1500882919258 486.90597106134646 1059.8926210620275 486.90597106134646L1059.8926210620275 486.90597106134646Q1067.9576075424466 486.90597106134646 1072.8534258937034 483.64937760448356Q1077.7273879130353 480.39278414762066 1077.7273879130353 474.92870116630706ZM1115.538842143725 393.71057173206174L1129.7454578951406 393.71057173206174L1129.7454578951406 413.84025343522103L1145.263453562071 413.84025343522103L1145.263453562071 424.833988393624L1129.7454578951406 424.833988393624L1129.7454578951406 476.3930754052991Q1129.7454578951406 481.3763190842571 1131.8218094280396 483.88979725566134Q1133.898160960939 486.38141909514036 1138.881404639897 486.38141909514036L1138.881404639897 486.38141909514036Q1141.3511701474504 486.38141909514036 1145.6568675367257 485.4634531542797L1145.6568675367257 485.4634531542797L1145.6568675367257 496.9817400788887Q1140.0397902319355 498.51168331365653 1134.750557906024 498.51168331365653L1134.750557906024 498.51168331365653Q1125.2211971866127 498.51168331365653 1120.3690914992062 492.7634680173146Q1115.538842143725 486.99339638904746 1115.538842143725 476.3930754052991L1115.538842143725 476.3930754052991L1115.538842143725 424.833988393624L1100.3924041195237 424.833988393624L1100.3924041195237 413.84025343522103L1115.538842143725 413.84025343522103L1115.538842143725 393.71057173206174ZM1202.046203903882 413.3812704647907L1202.046203903882 426.6043512795696Q1198.8333231108695 426.05794298143826 1195.0521776878004 426.05794298143826L1195.0521776878004 426.05794298143826Q1181.064125255638 426.05794298143826 1176.08088157668 437.9696438807019L1176.08088157668 437.9696438807019L1176.08088157668 496.9817400788887L1161.8742658252645 496.9817400788887L1161.8742658252645 413.84025343522103L1175.6874676020252 413.84025343522103L1175.9278872532032 423.45703948233296Q1182.9219134692844 412.3103102004532 1195.7515803094088 412.3103102004532L1195.7515803094088 412.3103102004532Q1199.904283375207 412.3103102004532 1202.046203903882 413.3812704647907L1202.046203903882 413.3812704647907ZM1278.2810896591695 496.9817400788887L1263.375071286146 496.9817400788887Q1262.1292603664065 494.511974571335 1261.3642887490223 488.2173509768617L1261.3642887490223 488.2173509768617Q1251.4633703868822 498.51168331365653 1237.6938812739718 498.51168331365653L1237.6938812739718 498.51168331365653Q1225.410622731979 498.51168331365653 1217.5423432388875 491.5613697614257Q1209.6522074138707 484.61105620919477 1209.6522074138707 473.92330989774536L1209.6522074138707 473.92330989774536Q1209.6522074138707 460.94064873414425 1219.5312694440854 453.74991553073556Q1229.4103314743006 446.5810386592521 1247.3106673210837 446.5810386592521L1247.3106673210837 446.5810386592521L1261.1457254297698 446.5810386592521L1261.1457254297698 440.0459954136011Q1261.1457254297698 432.5929862270893 1256.687033717018 428.1780071781879Q1252.2283420042663 423.7630281292865 1243.55137822994 423.7630281292865L1243.55137822994 423.7630281292865Q1235.9453747199514 423.7630281292865 1230.7872803855917 427.5878862162061Q1225.6291860512315 431.43460063505086 1225.6291860512315 436.89868361636445L1225.6291860512315 436.89868361636445L1211.3570013040403 436.89868361636445Q1211.3570013040403 430.6696290176669 1215.7719803529417 424.8777010574745Q1220.186959401843 419.06391676535685 1227.7492502479813 415.6761853169424Q1235.311541094119 412.3103102004532 1244.3819188430998 412.3103102004532L1244.3819188430998 412.3103102004532Q1258.763385249917 412.3103102004532 1266.8939407261119 419.4791870719367Q1275.0463525342316 426.66992027534536 1275.3523411811852 439.28102379621714L1275.3523411811852 439.28102379621714L1275.3523411811852 477.5514609973376Q1275.3523411811852 488.9823225942456 1278.2810896591695 495.7577854910745L1278.2810896591695 495.7577854910745L1278.2810896591695 496.9817400788887ZM1239.7702328068713 486.1409994439625L1239.7702328068713 486.1409994439625Q1246.4582703759988 486.1409994439625 1252.4469053235189 482.68769899977235Q1258.4573966029639 479.2343985555822 1261.1457254297698 473.7047465784928L1261.1457254297698 473.7047465784928L1261.1457254297698 456.63495134486914L1249.99899614789 456.63495134486914Q1223.880679497211 456.63495134486914 1223.880679497211 471.9343836925472L1223.880679497211 471.9343836925472Q1223.880679497211 478.6224212616751 1228.3393712099632 482.3817103528188Q1232.7762065907896 486.1409994439625 1239.7702328068713 486.1409994439625ZM1367.8701942207872 455.0175827824003L1367.8701942207872 456.3289626979156Q1367.8701942207872 475.3221151409616 1359.1932304464613 486.90597106134646Q1350.49441034021 498.51168331365653 1335.675817294887 498.51168331365653L1335.675817294887 498.51168331365653Q1320.5293792706861 498.51168331365653 1311.8524154963602 488.9167535984699L1311.8524154963602 488.9167535984699L1311.8524154963602 528.9575536855359L1297.6457997449447 528.9575536855359L1297.6457997449447 413.84025343522103L1310.628460908546 413.84025343522103L1311.3060071982286 423.0636255076784Q1320.00482730448 412.3103102004532 1335.4353976437096 412.3103102004532L1335.4353976437096 412.3103102004532Q1350.4288413444342 412.3103102004532 1359.1495177826105 423.61003380580973Q1367.8701942207872 434.88790107924103 1367.8701942207872 455.0175827824003L1367.8701942207872 455.0175827824003ZM1353.6635784693717 454.7115941354467L1353.6635784693717 454.7115941354467Q1353.6635784693717 440.6579727075082 1347.6530871899267 432.5055608993883Q1341.6644522424072 424.37500542319367 1331.2171255821354 424.37500542319367L1331.2171255821354 424.37500542319367Q1318.3000334143103 424.37500542319367 1311.8524154963602 435.82772335202696L1311.8524154963602 435.82772335202696L1311.8524154963602 475.54067846021417Q1318.2344644185341 486.90597106134646 1331.3701199056122 486.90597106134646L1331.3701199056122 486.90597106134646Q1341.5988832466314 486.90597106134646 1347.6312308580013 478.81912824900235Q1353.6635784693717 470.71042910473295 1353.6635784693717 454.7115941354467ZM1501.3468132883154 385.0991769535115L1501.3468132883154 397.25129750395297L1465.3712909393466 397.25129750395297L1465.3712909393466 496.9817400788887L1450.705692217501 496.9817400788887L1450.705692217501 397.25129750395297L1414.8175951962335 397.25129750395297L1414.8175951962335 385.0991769535115L1501.3468132883154 385.0991769535115ZM1573.2541453224026 496.9817400788887L1558.348126949379 496.9817400788887Q1557.124172361565 494.511974571335 1556.3592007441807 488.2173509768617L1556.3592007441807 488.2173509768617Q1546.4364260501152 498.51168331365653 1532.6887932691302 498.51168331365653L1532.6887932691302 498.51168331365653Q1520.383678395212 498.51168331365653 1512.5153989021205 491.5613697614257Q1504.647119409029 484.61105620919477 1504.647119409029 473.92330989774536L1504.647119409029 473.92330989774536Q1504.647119409029 460.94064873414425 1514.504325107319 453.74991553073556Q1524.3833871375336 446.5810386592521 1542.2837229843171 446.5810386592521L1542.2837229843171 446.5810386592521L1556.1187810930032 446.5810386592521L1556.1187810930032 440.0459954136011Q1556.1187810930032 432.5929862270893 1551.660089380251 428.1780071781879Q1547.2013976674994 423.7630281292865 1538.5244338931734 423.7630281292865L1538.5244338931734 423.7630281292865Q1530.9184303831848 423.7630281292865 1525.78219238075 427.5878862162061Q1520.62409804639 431.43460063505086 1520.62409804639 436.89868361636445L1520.62409804639 436.89868361636445L1506.3300569672733 436.89868361636445Q1506.3300569672733 430.6696290176669 1510.7450360161752 424.8777010574745Q1515.1600150650765 419.06391676535685 1522.7441622431397 415.6761853169424Q1530.3064530892775 412.3103102004532 1539.3768308382582 412.3103102004532L1539.3768308382582 412.3103102004532Q1553.73644091315 412.3103102004532 1561.8888527212703 419.4791870719367Q1570.04126452939 426.66992027534536 1570.3472531763437 439.28102379621714L1570.3472531763437 439.28102379621714L1570.3472531763437 477.5514609973376Q1570.3472531763437 488.9823225942456 1573.2541453224026 495.7577854910745L1573.2541453224026 495.7577854910745L1573.2541453224026 496.9817400788887ZM1534.7651448020297 486.1409994439625L1534.7651448020297 486.1409994439625Q1541.4531823711573 486.1409994439625 1547.4418173186768 482.68769899977235Q1553.4304522661969 479.2343985555822 1556.1187810930032 473.7047465784928L1556.1187810930032 473.7047465784928L1556.1187810930032 456.63495134486914L1544.9720518111235 456.63495134486914Q1518.8537351604446 456.63495134486914 1518.8537351604446 471.9343836925472L1518.8537351604446 471.9343836925472Q1518.8537351604446 478.6224212616751 1523.3124268731963 482.3817103528188Q1527.771118585948 486.1409994439625 1534.7651448020297 486.1409994439625ZM1641.0306306226162 474.92870116630706L1641.0306306226162 474.92870116630706Q1641.0306306226162 469.15862953803986 1636.6812205694905 465.96760507695274Q1632.3536668482902 462.79843694779083 1621.5566388772145 460.4816657637139Q1610.7596109061392 458.18675091156217 1604.4212746478152 454.95201378662455Q1598.0829383894916 451.7172766616869 1595.0449082518812 447.258584948935Q1592.0068781142709 442.7998932361831 1592.0068781142709 436.6582639651866L1592.0068781142709 436.6582639651866Q1592.0068781142709 426.4513569560928 1600.6401292247465 419.3699054123104Q1609.295236667147 412.3103102004532 1622.7368808011784 412.3103102004532L1622.7368808011784 412.3103102004532Q1636.8779275568181 412.3103102004532 1645.6860293226955 419.6103250634882Q1654.472274756648 426.91033992652314 1654.472274756648 438.27563252765543L1654.472274756648 438.27563252765543L1640.1782336775314 438.27563252765543Q1640.1782336775314 432.4399919036125 1635.2387026624237 428.22171984203845Q1630.2773153153912 423.98159144853906 1622.7368808011784 423.98159144853906L1622.7368808011784 423.98159144853906Q1614.977882967713 423.98159144853906 1610.6066165826624 427.3693228969535Q1606.213493865686 430.7570543453679 1606.213493865686 436.1992809947563L1606.213493865686 436.1992809947563Q1606.213493865686 441.35737532911634 1610.3006279357087 443.9582788282216Q1614.365905673806 446.5810386592521 1625.009939321405 448.96337883910485Q1635.653972969004 451.3457190189576 1642.2545852104304 454.646025139671Q1648.8770537837827 457.9463312603844 1652.0462219129445 462.60172996046356Q1655.2372463740317 467.2352723286175 1655.2372463740317 473.92330989774536L1655.2372463740317 473.92330989774536Q1655.2372463740317 485.0700391796251 1646.3417192804532 491.80178941260345Q1637.4243358549493 498.51168331365653 1623.1958637716089 498.51168331365653L1623.1958637716089 498.51168331365653Q1613.2075200817676 498.51168331365653 1605.5359475760033 494.9928138736906Q1597.8425187383136 491.45208810179935 1593.5149650171134 485.1137518434756Q1589.1655549639877 478.7754155851518 1589.1655549639877 471.38797539441583L1589.1655549639877 471.38797539441583L1603.3721707154032 471.38797539441583Q1603.765584690058 478.534995933974 1609.0985296798199 482.7314116636229Q1614.4533310015072 486.90597106134646 1623.1958637716089 486.90597106134646L1623.1958637716089 486.90597106134646Q1631.2608502520275 486.90597106134646 1636.1566686032847 483.64937760448356Q1641.0306306226162 480.39278414762066 1641.0306306226162 474.92870116630706ZM1725.9424801522296 496.9817400788887L1696.9609840193425 458.4927395585157L1688.065456925764 467.7816806267489L1688.065456925764 496.9817400788887L1673.8369848424231 496.9817400788887L1673.8369848424231 378.95754768251504L1688.065456925764 378.95754768251504L1688.065456925764 450.3403277503959L1695.6714604357521 441.20438100563956L1721.5493574352536 413.84025343522103L1738.8377159881297 413.84025343522103L1706.4903447387533 448.56996486445024L1742.6188614111988 496.9817400788887L1725.9424801522296 496.9817400788887ZM1851.0262677604605 385.0991769535115L1851.0262677604605 459.41070549937643L1866.5442634273913 459.41070549937643L1866.5442634273913 471.0164177516865L1851.0262677604605 471.0164177516865L1851.0262677604605 496.9817400788887L1836.732226681344 496.9817400788887L1836.732226681344 471.0164177516865L1785.7851169635765 471.0164177516865L1785.7851169635765 462.6454426243141L1835.9016860681845 385.0991769535115L1851.0262677604605 385.0991769535115ZM1835.0492891230992 407.61119883652356L1801.936946256339 459.41070549937643L1836.732226681344 459.41070549937643L1836.732226681344 404.55131236698793L1835.0492891230992 407.61119883652356Z " fill="#fbeaeb" transform="matrix(0.4715759660649511,0,0,0.4715759660649511,-5.217424363242594,85.92453269251857)"/></g></svg>